<?xml version="1.0" standalone="no"?>
<!DOCTYPE svg PUBLIC "-//W3C//DTD SVG 20010904//EN"
 "http://www.w3.org/TR/2001/REC-SVG-20010904/DTD/svg10.dtd">
<svg version="1.0" xmlns="http://www.w3.org/2000/svg"
 width="300.000000pt" height="300.000000pt" viewBox="0 0 300.000000 300.000000"
 preserveAspectRatio="xMidYMid meet">
<metadata>
Created by potrace 1.14, written by Peter Selinger 2001-2017
</metadata>
<g transform="translate(0.000000,300.000000) scale(0.100000,-0.100000)"
fill="#000000" stroke="none">
<path d="M745 2255 c-14 -13 -25 -29 -25 -35 0 -6 -29 -10 -73 -10 -115 0
-110 14 -105 -310 5 -318 0 -305 106 -305 l67 0 5 -411 c5 -387 6 -413 24
-433 19 -21 20 -21 753 -21 720 0 733 0 753 20 19 19 20 33 20 436 l0 415 75
-2 c48 -1 80 3 90 11 13 11 15 53 15 286 0 327 4 314 -110 314 -54 0 -70 3
-70 14 0 8 -12 24 -26 35 -26 21 -33 21 -751 21 l-724 0 -24 -25z m1475 -25
c8 -5 12 -11 9 -14 -4 -4 -1406 -10 -1464 -6 -5 0 -1 7 9 15 17 13 120 15 725
15 418 0 712 -4 721 -10z m-1260 -200 c0 -29 4 -40 15 -40 10 0 16 -11 17 -32
l1 -33 4 33 c3 19 10 32 19 32 10 0 14 12 14 40 0 39 1 40 35 40 l35 0 0 -65
c0 -51 -3 -65 -15 -65 -9 0 -15 -9 -15 -25 0 -14 -4 -25 -10 -25 -5 0 -10 -13
-10 -30 0 -20 -5 -30 -15 -30 -9 0 -15 -9 -15 -25 0 -14 -7 -28 -15 -31 -8 -4
-15 -17 -15 -31 0 -22 -4 -24 -37 -21 -37 3 -38 4 -41 46 -2 31 1 44 12 48 22
9 22 74 0 74 -12 0 -15 7 -12 25 4 17 1 25 -8 25 -10 0 -14 17 -14 65 l0 65
35 0 c34 0 35 -1 35 -40z m350 25 c0 -8 7 -15 15 -15 12 0 15 -15 15 -75 0
-60 -3 -75 -15 -75 -8 0 -15 -7 -15 -15 0 -12 -13 -15 -55 -15 l-55 0 0 -70 0
-70 -40 0 -40 0 0 175 0 175 95 0 c78 0 95 -3 95 -15z m120 -55 l0 -70 35 0
35 0 0 70 0 70 35 0 35 0 0 -175 0 -175 -35 0 -35 0 0 70 0 70 -35 0 -35 0 0
-70 0 -70 -35 0 -35 0 0 175 0 175 35 0 35 0 0 -70z m328 30 c-2 -28 0 -40 9
-40 9 0 13 -15 13 -45 0 -33 4 -45 15 -45 12 0 15 -17 15 -90 l0 -90 -35 0
c-31 0 -35 3 -35 25 0 22 -4 25 -35 25 -31 0 -35 -3 -35 -25 0 -22 -4 -25 -35
-25 l-35 0 0 90 c0 53 4 90 10 90 6 0 10 18 10 40 0 27 5 43 15 46 10 4 15 20
15 45 l0 39 56 0 56 0 -4 -40z m262 25 c0 -8 7 -15 15 -15 12 0 15 -15 15 -75
0 -60 -3 -75 -15 -75 -11 0 -15 -11 -15 -40 0 -29 4 -40 15 -40 11 0 15 -12
15 -45 l0 -45 -40 0 c-38 0 -40 2 -40 30 0 19 -5 29 -12 27 -9 -1 -14 13 -16
41 -2 28 -8 42 -18 42 -11 0 -14 -16 -14 -70 l0 -70 -40 0 -40 0 0 175 0 175
95 0 c78 0 95 -3 95 -15z m208 -867 l-3 -413 -727 -3 c-484 -1 -728 1 -728 8
0 5 0 190 0 410 0 220 0 402 0 405 0 3 329 5 730 5 l730 0 -2 -412z"/>
<path d="M1200 1965 c0 -32 2 -35 30 -35 28 0 30 3 30 35 0 32 -2 35 -30 35
-28 0 -30 -3 -30 -35z"/>
<path d="M1702 1903 c-1 -31 -6 -43 -17 -43 -8 0 -15 -4 -15 -10 0 -5 16 -10
35 -10 19 0 35 5 35 10 0 6 -6 10 -14 10 -10 0 -16 14 -19 43 l-4 42 -1 -42z"/>
<path d="M1910 1965 c0 -32 2 -35 30 -35 28 0 30 3 30 35 0 32 -2 35 -30 35
-28 0 -30 -3 -30 -35z"/>
<path d="M1140 1523 c-33 -12 -50 -37 -50 -73 0 -60 55 -93 109 -65 53 27 54
103 1 130 -31 16 -36 17 -60 8z"/>
<path d="M1784 1507 c-50 -43 -29 -116 38 -132 22 -6 33 -1 58 23 38 38 38 66
1 103 -36 35 -61 37 -97 6z"/>
<path d="M1057 1193 c-4 -3 -7 -51 -7 -105 0 -105 13 -153 53 -196 47 -51 54
-52 392 -52 349 0 346 0 403 64 38 43 44 73 40 196 l-3 95 -436 3 c-239 1
-439 -1 -442 -5z m843 -93 l0 -59 -77 -3 c-65 -3 -78 -6 -81 -20 -3 -16 6 -18
78 -18 80 0 81 0 74 -22 -12 -38 -35 -68 -65 -84 -23 -11 -87 -14 -340 -14
l-311 0 -39 39 c-22 21 -39 48 -39 59 0 19 7 21 73 24 56 2 72 6 72 18 0 12
-17 16 -77 18 l-78 3 0 53 c0 29 3 56 7 59 3 4 186 7 405 7 l398 0 0 -60z"/>
</g>
</svg>
